# xmcd
#
# Track frame offsets: 
#        150
#        20279
#        33899
#        44924
#        58791
#        69854
#        83459
#        94184
#        105801
#        118409
#        129801
#        141434
#        151409
#        165831
#        178424
#        196821
#        211251
#        225269
#        249066
#        267516
#        286184
#        308661
#        331491
#
# Disc length: 4675 seconds
#
# Revision: 1
# Processed by: cddbd v1.5.2PL0 Copyright (c) Steve Scherf et al.
# Submitted via: ExactAudioCopy v1.0b3
#
DISCID=2d124117
DTITLE=Mugssy Spanier - The Essential Collection - Disc 2
DYEAR=1954
DGENRE=Jazz
TTITLE0=September In The Rain - Muggsy Spanier and His Ragtimers
TTITLE1=Since My Best Gal Turned Me Down - Muggsy Spanier and His Ragtim
TTITLE1=ers
TTITLE2=Muskogee Blues - Pee Wee Russell Jazz Ensemble
TTITLE3=Rosie - Pee Wee Russell Jazz Ensemble
TTITLE4=Take Me The Land Of Jazz - Pee Wee Russell Jazz Ensemble
TTITLE5=I'd Climb The Highest Mountain - Pee Wee Russell Jazz Ensemble
TTITLE6=Red Hot Mama - Pee Wee Russell Jazz Ensemble
TTITLE7=Pee Wee Squawks - Muggsy Spanier and His Orchestra
TTITLE8=Sentimental Journey - Muggsy Spanier and His Orchestra
TTITLE9=Muggsy Special - Muggsy Spanier and His Orchestra
TTITLE10=You're Driving Me Crazy - Muggsy Spanier and His Orchestra
TTITLE11=Am I Blue? - Muggsy Spanier and His Orchestra
TTITLE12=How Come You Do Me Like You Do? - Muggsy Spanier and His Orches
TTITLE12=tra
TTITLE13=Sentimental Journey - Muggsy Spanier and His Orchestra
TTITLE14=Chicago - Muggsy Spanier and His Jazz Band
TTITLE15=When The Saints Go Marching In - Muggsy Spanier and His Jazz Ba
TTITLE15=nd
TTITLE16=Blue Turning Grey Over You - Muggsy Spanier and His Jazz Band
TTITLE17=Tin Roof Blues - Muggsy Spanier and His Jazz Band
TTITLE18=Muskrat Ramble - Muggsy Spanier and His Jazz Band
TTITLE19=St Louis Blues - Muggsy Spanier and His Jazz Band
TTITLE20=Rose Room - Muggsy Spanier and His Jazz Band
TTITLE21=Memphis Blues - Muggsy Spanier and His Jazz Band
TTITLE22=Royal Garden Blues - Muggsy Spanier and His Jazz Band
EXTD=
EXTT0=
EXTT1=
EXTT2=
EXTT3=
EXTT4=
EXTT5=
EXTT6=
EXTT7=
EXTT8=
EXTT9=
EXTT10=
EXTT11=
EXTT12=
EXTT13=
EXTT14=
EXTT15=
EXTT16=
EXTT17=
EXTT18=
EXTT19=
EXTT20=
EXTT21=
EXTT22=
PLAYORDER=
